<svg width="1795" height="726" xmlns="http://www.w3.org/2000/svg" xmlns:xlink="http://www.w3.org/1999/xlink" xml:space="preserve" overflow="hidden"><g transform="translate(-1264 -1098)"><path d="M1266 1801C1557.25 1780.58 1727.98 1644.86 2166.52 1599.22 2643.01 1564.39 2460 1716.92 3057 1674.89" stroke="#0055A1" stroke-width="45.8333" stroke-miterlimit="8" fill="none" fill-rule="evenodd"/><path d="M1266 1700C1557.25 1679.51 1838.45 1474.56 2276.99 1428.75 2753.48 1393.79 2460 1615.61 3057 1573.42" stroke="#96C0E9" stroke-width="45.8333" stroke-miterlimit="8" fill="none" fill-rule="evenodd"/><path d="M1266 1595C1557.25 1574.54 1922.14 1315.8 2360.69 1270.06 2837.17 1235.16 2460 1510.76 3057 1468.64" stroke="#F19EB1" stroke-width="45.8333" stroke-miterlimit="8" fill="none" fill-rule="evenodd"/><path d="M1266 1489C1557.25 1468.51 2079.48 1169.52 2518.03 1123.71 2994.51 1088.75 2460 1404.61 3057 1362.41" stroke="#FCD898" stroke-width="45.8333" stroke-miterlimit="8" fill="none" fill-rule="evenodd"/></g></svg>